<?xml version="1.0" encoding="utf-8"?>
<!-- Generator: Adobe Illustrator 22.0.0, SVG Export Plug-In . SVG Version: 6.00 Build 0)  -->
<svg version="1.1" id="图层_1" xmlns="http://www.w3.org/2000/svg" xmlns:xlink="http://www.w3.org/1999/xlink" x="0px" y="0px"
	 viewBox="0 0 200 200" style="enable-background:new 0 0 200 200;" xml:space="preserve">
<style type="text/css">
	.st0{fill:#E0E1E1;}
	.st1{fill:#F6F6F6;}
	.st2{fill:#EFEFEF;}
	.st3{fill:#F2F2F2;}
	.st4{fill:#B9C2C9;}
</style>
<polygon class="st0" points="44.6,78.7 72.8,46.4 134.8,45.1 164.7,78.7 124.2,109.3 77.9,112.1 "/>
<path class="st1" d="M19.3,137.3c0,10.3,38.2,18.7,85.4,18.7s85.4-8.4,85.4-18.7s-38.2-18.7-85.4-18.7S19.3,127,19.3,137.3z"/>
<path class="st2" d="M167.3,105.3H42V78.9l27.5-31.2c1.2-2.3,3.6-3.7,6.1-3.7h58.1c2.7,0.1,5.1,1.6,6.4,4l27.2,30.9V105.3z
	 M44.6,102.7h120V79.7L138,49.3c-1.3-1.9-2.7-2.9-4.3-2.9H75.6c-1.7,0.1-3.2,1.2-4,2.7L44.6,80V102.7z"/>
<path class="st3" d="M130.3,87.7c0-4.3,2.7-7.7,5.9-7.7H166v48.3c0,5.6-3.5,10.4-8,10.4H51.3c-4.3,0-8-4.5-8-10.4V80h29.9
	c3.2,0,5.9,3.5,5.9,7.7s2.7,7.7,5.9,7.7h39.5C127.6,95.7,130.3,92,130.3,87.7L130.3,87.7z"/>
<path class="st2" d="M158,140H51.3c-5.1,0-9.3-5.3-9.3-11.7V78.7h31.2c4,0,7.2,4,7.2,9.1c0,3.5,2.1,6.4,4.5,6.4h39.5
	c2.4,0,4.5-2.9,4.5-6.4c0-5.1,3.2-9.1,7.2-9.1h31.2v49.6C167.3,134.7,163.3,140,158,140L158,140z M44.6,81.3v46.9
	c0,5.1,2.9,9.1,6.7,9.1H158c3.7,0,6.7-4,6.7-9.1V81.3h-28.5c-2.4,0-4.5,2.9-4.5,6.4c0,5.1-3.2,9.1-7.2,9.1H84.9c-4,0-7.2-4-7.2-9.1
	c0-3.5-2.1-6.7-4.5-6.7H44.6V81.3z"/>
<path class="st4" d="M188.5,109.4l-10.2-10.2c2.7-3.6,4.2-8.1,4.2-12.9c0-12-9.8-21.8-21.8-21.8c-12,0-21.8,9.8-21.8,21.8
	c0,12,9.8,21.8,21.8,21.8c4.8,0,9.3-1.6,12.9-4.2l10.2,10.2c0.6,0.6,1.5,1,2.3,1s1.7-0.3,2.3-1C189.8,112.8,189.8,110.7,188.5,109.4
	z M144.3,86.3c0-9.1,7.4-16.4,16.4-16.4c9.1,0,16.4,7.4,16.4,16.4c0,9.1-7.4,16.4-16.4,16.4C151.7,102.7,144.3,95.3,144.3,86.3z"/>
<image style="overflow:visible;" width="96" height="96" xlink:href="暂无数据v2-20201012/blank.png"  transform="matrix(1 0 0 1 -561.6667 46)">
</image>
</svg>
