<?xml version="1.0" encoding="utf-8"?>
<!-- Generator: Adobe Illustrator 22.0.0, SVG Export Plug-In . SVG Version: 6.00 Build 0)  -->
<svg version="1.1" id="图层_1" xmlns="http://www.w3.org/2000/svg" xmlns:xlink="http://www.w3.org/1999/xlink" x="0px" y="0px"
	 viewBox="0 0 586 491" style="enable-background:new 0 0 586 491;" xml:space="preserve">
<style type="text/css">
	.st0{fill:#40A9FF;}
	.st1{fill:#BAE7FF;}
	.st2{fill:#096DD9;}
	.st3{fill:#EFEFEF;fill-opacity:0;}
	.st4{fill:#71E5CB;}
	.st5{fill:#39B499;}
	.st6{fill:#8AE6B9;}
	.st7{fill:#55CEB3;}
	.st8{fill:#F3F9FF;}
	.st9{fill:#D0E7FE;}
	.st10{fill:url(#Path_34_);}
	.st11{fill:#143E81;}
	.st12{fill:#F7A959;}
	.st13{fill:#DCEEFD;}
	.st14{fill:#A9C2E8;}
	.st15{fill:url(#SVGID_1_);}
	.st16{fill:#DAE7FF;}
	.st17{fill:#8184F4;}
	.st18{fill:#A9ABFB;}
	.st19{fill:#5358FC;}
	.st20{fill:#FECCA9;}
	.st21{fill:#0A2A55;}
	.st22{fill:#3E65A3;}
	.st23{fill:#FBDFCB;}
	.st24{fill:#E8ECFC;}
</style>
<title>页面飞走了@3x</title>
<desc>Created with Sketch.</desc>
<g id="柱状图" transform="translate(100.000000, 318.000000)">
	<path id="Path" class="st0" d="M103.4,34.3L-2.8,50.4c-4.9,0.7-9.5-2.6-10.2-7.6l-13.8-91.4c-0.7-4.9,2.6-9.5,7.6-10.2L86.9-74.9
		c4.9-0.7,9.5,2.6,10.2,7.6L111,24C111.7,29,108.3,33.6,103.4,34.3z"/>
	<polygon id="Rectangle" class="st1" points="27.7,-37 36.4,-38.3 38.1,-26.6 29.4,-25.3 	"/>
	<polygon id="Rectangle_1_" class="st2" points="29.4,-25.3 38.1,-26.6 44.3,14.2 35.6,15.6 	"/>
	<polygon id="Rectangle_2_" class="st1" points="14.6,-35 23.3,-36.3 26.9,-13 18.2,-11.6 	"/>
	<polygon id="Rectangle_3_" class="st2" points="18.2,-11.6 26.9,-13 31.3,16.2 22.6,17.5 	"/>
	<polygon id="Rectangle_4_" class="st1" points="1.6,-33 10.3,-34.3 15.6,0.7 6.9,2 	"/>
	<polygon id="Rectangle_5_" class="st2" points="6.9,2 15.6,0.7 18.2,18.2 9.5,19.5 	"/>
	<polygon id="Rectangle_6_" class="st1" points="65.8,-42.7 74.5,-44 82.5,8.5 73.8,9.8 	"/>
	<polygon id="Rectangle_7_" class="st1" points="52.8,-40.8 61.5,-42.1 62.2,-37.3 53.5,-36 	"/>
	<polygon id="Rectangle_8_" class="st2" points="53.5,-36 62.2,-37.3 69.4,10.5 60.7,11.8 	"/>
	<polygon id="Rectangle_9_" class="st1" points="39.8,-38.8 48.5,-40.1 49.9,-30.6 41.2,-29.3 	"/>
	<polygon id="Rectangle_10_" class="st2" points="41.2,-29.3 49.9,-30.6 56.4,12.4 47.7,13.7 	"/>
</g>
<rect id="矩形备份-4" x="-27" y="-75" class="st3" width="640" height="640"/>
<g id="plant_6_" transform="translate(288.000000, 0.000000)">
	<path id="Path_1_" class="st4" d="M79,144c0,0,76.1-130.5,204-37.7l-34.9-7.4l10.4,9.4L224,120.2l-25.8-17.4c0,0,14.3,16.6,21,21.9
		c-7.3,4.2-44.4,8.3-44.4,8.3l-4.3-19.6c0,0-1.2,16.8,1.7,24.2l-35.2,3l-5-12.8l-12.2,10.6L79,144z"/>
	<path id="Path_2_" class="st5" d="M81,149c0,0,33.6-147.7,184-96l-36,10l-0.5,9.1l-26.3,19.2l-19.5-16.8c0,0,2.9,15.6,10.9,18.7
		c-5.7,6.1-24.3,17.1-24.3,17.1l-10.1-17.6c0,0-2.4,11.7,2.6,18l-26.5,18l-8.7-10.8l4.6,13.6L81,149z"/>
	<path id="Path_3_" class="st6" d="M161,109c0,0-34.5-125.2-161-75.2L31.1,41l0.8,7.7l23.3,15.5l16-15.1c0,0-1.8,13.5-8.6,16.4
		c5.1,5,21.4,13.7,21.4,13.7l7.9-15.4c0,0,2.5,10-1.5,15.5l23.4,14.4l7-9.6l-3.4,11.8L161,109z"/>
	<path id="Path_4_" class="st7" d="M81,149c0,0,30.9-186.3,152-142.2l-27.6,23l-22.9-5.5l23,11.3l-14.8,18.7l-31.4-4.7l11.7,8
		l-13.1,25.3l-16.4-9.4c0,0,0.8,12.1,7.4,16.8l-20.8,24.5l-11.3-8.3l8.1,12L81,149z"/>
</g>
<g id="plant_10_" transform="translate(42.000000, 281.500000) scale(-1, 1) translate(-42.000000, -281.500000) translate(0.000000, 163.000000)">
	<path id="Path_5_" class="st8" d="M45.5,161.9c26.1-1.1,36.9-14.4,38.4-44C85.4,88.4,70,75.1,68.1,52.5
		C66.1,29.9,60.7,1.3,55.1,0.1S46.6,13.3,40,22.2c-9.8,13.3-24.3,6.8-19.4,42.3C24.9,95,3.6,91.9,0.3,122.4
		C-2.9,152.1,18.8,163.1,45.5,161.9z"/>
	<path id="Path_6_" class="st9" d="M28,237c-0.1-15.2,0.6-30.2,2.1-45.2c1.5-15,3.8-29.9,7.5-44.6c0.7-2.4,1.4-4.8,2-7.2
		c-6.4-14.3-8.9-30.2-7.4-45.5c-0.5,14.3,2.5,28.7,8.6,41.5c3.1-10.7,6.1-21.3,7.8-32.4C51.2,89,52.6,74,52.1,59
		c0.9,15,0,30-2.2,44.9c-0.3,2.4-0.7,4.7-1.1,7.1c3.8-2.4,7.1-5.9,9.9-9.6C61.9,97,64.3,92,66,86.8c-1.3,5.3-3.3,10.5-6.2,15.3
		c-3,4.7-6.6,9.1-11.6,12.3c-2.2,11.3-5.3,22.4-8,33.4c-6.3,29.1-7.8,59.3-6.9,88.9L28,237z"/>
</g>
<g id="Group">
	
		<linearGradient id="Path_34_" gradientUnits="userSpaceOnUse" x1="244.8559" y1="294.589" x2="244.8559" y2="293.589" gradientTransform="matrix(380.3937 0 0 -336.1597 -92841.7188 99113.6563)">
		<stop  offset="0" style="stop-color:#F0F1FF"/>
		<stop  offset="1" style="stop-color:#F3F9FF"/>
	</linearGradient>
	<path id="Path_7_" class="st10" d="M490.1,84.7v331c0,2.8-2.3,5.1-5.1,5.1H114.9c-2.8,0-5.1-2.3-5.1-5.1v-331H490.1z"/>
	<path id="Path_8_" class="st11" d="M490.1,63.6v21.1H109.7V63.6c0-4.9,4-8.9,8.9-8.9h362.7C486.2,54.8,490.1,58.7,490.1,63.6z"/>
	<ellipse id="Oval" class="st12" cx="137" cy="70.3" rx="5.6" ry="5.6"/>
	<ellipse id="Oval_1_" class="st7" cx="157" cy="70.3" rx="5.6" ry="5.6"/>
	<rect id="Rectangle_11_" x="109.7" y="84.7" class="st13" width="379.7" height="8.4"/>
</g>
<g id="Path_9_" transform="translate(176.026234, 148.800623)">
	<path class="st14" d="M294.5,150.2v105.3c0,5.7-4.6,10.3-10.3,10.3h-123c-5.7,0-10.3-4.6-10.3-10.3V150.2c0-5.7,4.6-10.3,10.3-10.3
		h123C289.8,139.9,294.5,144.5,294.5,150.2z"/>
	
		<linearGradient id="SVGID_1_" gradientUnits="userSpaceOnUse" x1="67.8705" y1="146.6384" x2="67.8705" y2="145.6384" gradientTransform="matrix(143.5853 0 0 -125.853 -9522.5332 18589.6797)">
		<stop  offset="0" style="stop-color:#F0F1FF"/>
		<stop  offset="1" style="stop-color:#F3F9FF"/>
	</linearGradient>
	<path class="st15" d="M294.5,145.1v105.3c0,5.7-4.6,10.3-10.3,10.3h-123c-5.7,0-10.3-4.6-10.3-10.3V145.1c0-5.7,4.6-10.3,10.3-10.3
		h123C289.8,134.8,294.5,139.4,294.5,145.1z"/>
</g>
<path id="Shape" class="st16" d="M380.6,277.6h-13.8v-3.7h13.8V277.6z M353.1,277.6h-13.8v-3.7h13.8V277.6z M325.6,277.6h-13.8v-3.7
	h13.8V277.6z M298,277.6h-13.8v-3.7H298V277.6z M270.5,277.6h-13.8v-3.7h13.8V277.6z M243,277.6h-13.8v-3.7H243V277.6z M215,277.3
	c-5.3-1.1-9.5-4.4-11.4-9l3.9-1.3c1.3,3.3,4.6,5.9,8.4,6.6L215,277.3z M394.6,273l-3.1-2.5c1.9-1.9,3-4.4,3-7v-3.3h4.1v3.3
	C398.7,267,397.2,270.4,394.6,273z M206.8,255.5h-4.1v-12.3h4.1V255.5z M398.7,247.9h-4.1v-12.3h4.1V247.9z M206.8,230.8h-4.1v-12.3
	h4.1V230.8z M398.7,223.3h-4.1V211h4.1V223.3z M206.8,206.2h-4.1v-12.3h4.1V206.2z M398.7,198.6h-4.1v-12.3h4.1V198.6z M206.8,181.6
	h-4.1v-12.3h4.1V181.6z M398.7,174h-4.1v-12.3h4.1V174z M206.8,157h-4.1v-12.3h4.1V157z M398.7,149.4h-4.1v-12.3
	c0-2.5-1-4.8-2.7-6.7l3.2-2.4c2.4,2.5,3.7,5.8,3.7,9.1V149.4z M207.7,133.1l-3.8-1.4c2-4.5,6.4-7.7,11.8-8.6l0.8,3.6
	C212.5,127.4,209.2,129.9,207.7,133.1z M381.2,126.6h-13.8v-3.7h13.8V126.6z M353.6,126.6h-13.8v-3.7h13.8V126.6z M326.1,126.6
	h-13.8v-3.7h13.8V126.6z M298.6,126.6h-13.8v-3.7h13.8V126.6z M271,126.6h-13.8v-3.7H271V126.6z M243.5,126.6h-13.8v-3.7h13.8V126.6
	z"/>
<g id="paperplane" transform="translate(548.000000, 277.000000) scale(-1, 1) translate(-548.000000, -277.000000) translate(510.000000, 256.000000)">
	<polygon id="Path_10_" class="st17" points="75.7,16.5 56.9,25.9 0.2,0.7 	"/>
	<polygon id="Path_11_" class="st18" points="53.7,41.7 56.9,25.9 0.2,0.7 	"/>
	<polygon id="Path_12_" class="st19" points="53.7,41.7 47.4,29.1 31.7,25.9 	"/>
	<polygon id="Path_13_" class="st17" points="47.4,29.1 31.7,35.4 0.2,0.7 	"/>
</g>
<path id="Path_14_" class="st20" d="M184.6,289.2c0,0-1.1-1.5-1.3-2.8c-0.2-1.3,0-7-2.2-10.9c-2.2-3.9-12.7-3.2-12.7-2.2
	c0,2.2,6.8,0.8,8.1,5.9c0.4,1.4-0.9,2.7-1.5,2.4c-1.6-0.8-2.1-4.7-3.5-4.6c-1,0.1-1.7,6.5,0.9,9.1c1.8,1.9,6.3,5.7,7.4,8.9
	C181.1,298.3,185.7,291.3,184.6,289.2z"/>
<path id="Path_15_" class="st5" d="M187.5,288.8c-0.3-0.5-1-0.6-1.5-0.3l-8.8,6c-0.5,0.4-0.7,1.1-0.3,1.7
	c4.4,6.5,22.1,36.4,30.3,38.1L216,321C193.1,297.1,193.3,297.2,187.5,288.8z"/>
<path id="Path_16_" class="st20" d="M202,472.9l-4.7,9.5c0,0,0.2,1.7,5.2,2.2c5,0.4,6.8-2.2,6.8-2.2s2.1-7,2-7.5
	C211.3,474.4,202,472.9,202,472.9z"/>
<path id="Path_17_" class="st21" d="M198.1,479.7c-0.5-0.6-7.8,4-8.1,4.1c-2.6,1-9.4,2.5-9.4,5c0,2.7,19.8,2,27,1.6
	c1.5-0.1,3.1-0.7,3.1-2.2l-0.8-7.2c0-0.3-3.1,2.2-5.6,1.5S199.2,480.9,198.1,479.7z"/>
<path id="Path_18_" class="st20" d="M243.9,455.9l4.3,4c0,0,2.6,1.3,5.5-2.8c3-4.1,1.7-7,1.7-7s-5.2-4.8-5.6-5
	C249.3,445,243.9,455.9,243.9,455.9z"/>
<path id="Path_19_" class="st21" d="M247.9,457.4c-0.7,0.1-1.3,0.8-1.3,1.6c0,2.6,0,8.3-0.1,8.6c-0.5,2.7-2.7,9.3-0.5,10.7
	c2.3,1.4,11.9-16,15.3-22.4c0.7-1.3,0.7-3.8-0.5-4.6l-5.5-2.2c-0.3-0.2-0.6-0.2-0.8,0c-0.3,0.1-0.4,0.4-0.4,0.7c0,1.4-0.3,3.5-1.1,5
	C252,456.4,249.4,457.1,247.9,457.4z"/>
<path id="Path_20_" class="st11" d="M195.7,421.5c-1.8,9.9,46.5,36.9,46.9,36.1l9.4-14.1c0.3-0.6-10.9-9.1-33.7-25.6l11.1-40.3
	h-19.9C209.6,377.7,197.5,411.4,195.7,421.5z"/>
<path id="Path_21_" class="st22" d="M236.6,377.7c0.4,12.4-10.9,47.3-12.1,59.2c-1,10.3-8,34.9-9.9,41.3c-0.3,0.9-17.3-4.3-17.2-5
	c0.9-7.3,3.8-24.8,4.9-30.4c1.3-6.8,6.3-46.3,10.2-60.3C216.3,368.5,236.6,377.7,236.6,377.7z"/>
<g id="柱状图_1_">
	<path id="Path_22_" class="st0" d="M250.8,365.2l-153,23.1c-7.1,1.1-13.7-3.8-14.8-10.9L63.1,245.9c-1.1-7.1,3.8-13.7,10.9-14.8
		L227,208c7.1-1.1,13.7,3.8,14.8,10.9l19.9,131.6C262.7,357.5,257.9,364.1,250.8,365.2z"/>
	<polygon id="Rectangle_12_" class="st1" points="141.7,262.6 154.3,260.7 156.8,277.5 144.3,279.4 	"/>
	<polygon id="Rectangle_13_" class="st2" points="144.3,279.4 156.8,277.5 165.7,336.3 153.2,338.2 	"/>
	<polygon id="Rectangle_14_" class="st1" points="123,265.4 135.5,263.6 140.6,297.2 128,299 	"/>
	<polygon id="Rectangle_15_" class="st2" points="128,299 140.6,297.2 146.9,339.2 134.4,341.1 	"/>
	<polygon id="Rectangle_16_" class="st1" points="104.2,268.3 116.7,266.4 124.3,316.8 111.8,318.7 	"/>
	<polygon id="Rectangle_17_" class="st2" points="111.8,318.7 124.3,316.8 128.1,342 115.6,343.9 	"/>
	<polygon id="Rectangle_18_" class="st1" points="196.7,254.3 209.2,252.4 220.6,328 208.1,329.9 	"/>
	<polygon id="Rectangle_19_" class="st1" points="177.9,257.1 190.4,255.2 191.4,262 178.9,263.9 	"/>
	<polygon id="Rectangle_20_" class="st2" points="178.9,263.9 191.4,262 201.8,330.9 189.3,332.8 	"/>
	<polygon id="Rectangle_21_" class="st1" points="159.1,260 171.6,258.1 173.7,271.7 161.2,273.6 	"/>
	<polygon id="Rectangle_22_" class="st2" points="161.2,273.6 173.7,271.7 183.1,333.7 170.6,335.6 	"/>
</g>
<path id="Path_23_" class="st20" d="M182.2,371.6c0,0-6.7-1.1-9.8-0.7c-3.1,0.4-6.4,1.1-6.3,1.9c0.1,0.8,7,1.4,7,1.4
	s-1.4,2.4-4.4,2.5c-3,0.1-5,0.5-5.1,1.1c-0.1,0.6,8.7,3.6,11.9,2.2c3.2-1.4,9.7-3.1,9.7-3.1L182.2,371.6z"/>
<path id="Path_24_" class="st20" d="M210.1,318.4c0,0-0.6-2.6-1.1-4.4c-0.9-3.6-3.5,0.6-6.1-0.9c-0.9-0.5-1.9-4.2-2.5-4.6
	c-0.7-0.4-2.1,1.3-2.4-0.9c-0.4-2.4-0.6-10.8,1.5-14.1c2.3-3.6,12.2-6.5,15-2.2c2.9,4.3,4.9,23.6,4.9,23.6L210.1,318.4z"/>
<path id="Path_25_" class="st21" d="M210.7,301.4c-1.4,1.3-0.1-5.2-2.2-5.9c-2-0.6-12.4,5-14.1-1.8c-0.6-2.1-4-9.2-1.8-9.6
	c7-1,8.1-2.6,10.5-3.3c3.5-0.9,17.2-2.8,20.6,10c3.4,12.8-4.7,16.8-6.2,15.6C216,305.5,219.4,293.6,210.7,301.4z"/>
<path id="Path_26_" class="st4" d="M219.4,311.8c-1-0.8-9.7,3.8-10,4.8c-0.4,1-5,10.8-4.1,23.3c1.7-0.5,16.8-23.6,16.6-24.3
	C221.7,315,220.2,312.4,219.4,311.8z"/>
<path id="Path_27_" class="st7" d="M202.2,382.9c12.8-0.8,21.9-1.6,27.2-2.6s10.7-2.3,16.3-4c-6.1-13.9-9.6-23.7-10.5-29.3
	c-2.4-21.4-11-31.2-14-31.7c-2.9-0.6-9.8,7.3-9.8,7.3c-2.6,5.5-6.1,10.2-6.3,14.9c-0.3,6.6,2.5,16.2,2.5,21.7c0,2.6-0.6,5.2-1.3,7.8
	c-0.6,2.2-1.3,4.5-2,6.7C203.7,376.3,203,379.4,202.2,382.9z"/>
<path id="Path_28_" class="st5" d="M204.4,373.7c6.8-1.7,21-5.8,24.1-11.7c4-7.9-6.3-26.2-6.3-26.2c3.1,14.6,1.7,30.6-9.9,31.4
	c-1.8,0.1-3.8,0.1-5.9-0.1C205.8,369.2,205,371.5,204.4,373.7z"/>
<path id="Path_29_" class="st7" d="M183.8,379.3c15.7-5.3,26.8-9.9,33.3-13.6c9.8-5.6,5-29.9,5-29.9l-15.7,2.8l0.7,12.9
	c0,0-24.9,15-25.4,15.8C180.5,369.4,181.2,373.4,183.8,379.3z"/>
<g id="plant_3_" transform="translate(412.000000, 373.000000)">
	<path id="Path_30_" class="st23" d="M58,63H0c0,0-0.5,32,29,32S58,63,58,63z"/>
	<ellipse id="Oval_2_" class="st24" cx="29" cy="62.5" rx="29" ry="9.5"/>
	<path id="Path_31_" class="st7" d="M28.9,66c0,0-22.3-35.7-14-66C14.8,0,30.4,27.8,28.9,66z"/>
	<path id="Path_32_" class="st7" d="M29,66c0,0,2-42.2,26-63C55,3,52,34.9,29,66z"/>
	<path id="Path_33_" class="st5" d="M29.6,71c0,0-9.3-40.7,7.1-67C36.8,4,42.4,35.1,29.6,71z"/>
</g>
</svg>
