<?xml version="1.0" encoding="utf-8"?>
<!-- Generator: Adobe Illustrator 22.0.0, SVG Export Plug-In . SVG Version: 6.00 Build 0)  -->
<svg version="1.1" id="图层_1" xmlns="http://www.w3.org/2000/svg" xmlns:xlink="http://www.w3.org/1999/xlink" x="0px" y="0px"
	 viewBox="0 0 200 200" style="enable-background:new 0 0 200 200;" xml:space="preserve">
<style type="text/css">
	.st0{fill:#C3C7C9;}
	.st1{fill:#B9C2C9;}
	.st2{fill:#DDDDDD;}
	.st3{fill:#ECECEC;}
	.st4{fill:#F5F5F7;}
	.st5{fill:#E3E3E3;}
</style>
<path class="st0" d="M179,51L89.6,39.1v47.3l89.5,9.4V51z"/>
<path class="st1" d="M18,54.6l71.6-15.5v53.7L18,108.2V54.6z"/>
<path class="st2" d="M101.5,72.5L179,51v101.4l-77.5,21.4V72.5z"/>
<path class="st3" d="M18,54.6l83.5,17.9v100.8L18,153L18,54.6z"/>
<path class="st4" d="M101.5,72.3L18,54.6L0.1,90.4l86.5,20.3L101.5,72.3z"/>
<path class="st3" d="M101.5,72.5L179,51l20.9,35.8l-74.6,24.4L101.5,72.5z"/>
<path class="st5" d="M101.5,52.8c0,0,0.3-11.5,8.7-37.3c0,0,1.5,1.7,4.5,5.6C114.7,21.1,111.6,23.8,101.5,52.8L101.5,52.8z
	 M72.3,50.7c0,0-9.4-27.7-32.6-40.3c0,0-3.9,5.4-8.1,7.1C31.6,17.6,58.3,26.9,72.3,50.7z"/>
</svg>
