<?xml version="1.0" encoding="utf-8"?>
<!-- Generator: Adobe Illustrator 22.0.0, SVG Export Plug-In . SVG Version: 6.00 Build 0)  -->
<svg version="1.1" id="图层_1" xmlns="http://www.w3.org/2000/svg" xmlns:xlink="http://www.w3.org/1999/xlink" x="0px" y="0px"
	 viewBox="0 0 200 200" style="enable-background:new 0 0 200 200;" xml:space="preserve">
<style type="text/css">
	.st0{fill:#4680E8;}
	.st1{fill:#8FB3FF;}
	.st2{fill:#ABC3EF;}
</style>
<path class="st0" d="M176.9,73.2L89.8,61.6v46l87.1,9.1V73.2z"/>
<path class="st1" d="M20,76.7l69.7-15.1v52.3L20,129V76.7z"/>
<path class="st0" d="M101.4,94.1l75.5-20.9V172l-75.5,20.9V94.1z"/>
<path class="st1" d="M20,76.7l81.3,17.4v98.2L20,172.6V76.7z"/>
<path class="st2" d="M101.4,94L20,76.7L2.6,111.6l84.2,19.8L101.4,94L101.4,94z"/>
<path class="st1" d="M101.4,94.1l75.5-20.9l20.3,34.8l-72.6,23.8C124.6,131.9,101.4,94.1,101.4,94.1z"/>
<path class="st2" d="M142.2,75.8c0,0,3.2-20.4,20.1-30.5c0,0,1.5,1.7,4.4,5.4C166.8,50.7,159.1,49.5,142.2,75.8z"/>
<path class="st1" d="M101.4,75c0,0,0.3-11.2,8.5-36.3c0,0,1.5,1.7,4.4,5.4C114.3,44.1,111.2,46.8,101.4,75z"/>
<path class="st2" d="M73,73c0,0-9.2-27-31.7-39.2c0,0-3.8,5.3-7.9,6.9C33.3,40.7,59.3,49.7,73,73z"/>
</svg>
